<svg xmlns="http://www.w3.org/2000/svg" viewBox="0 0 120 100" fill="none" aria-hidden="true">
  <defs>
    <linearGradient id="g3d" x1="20" y1="10" x2="100" y2="90" gradientUnits="userSpaceOnUse">
      <stop stop-color="#f5f0ea"/>
      <stop offset="1" stop-color="#e8dfd4"/>
    </linearGradient>
  </defs>
  <ellipse cx="60" cy="88" rx="38" ry="6" fill="#e7e5e4" opacity="0.9"/>
  <path d="M18 52c8-18 28-28 48-24 16 3 28 16 30 34" stroke="#d6d3d1" stroke-width="1.5" stroke-dasharray="4 3"/>
  <path d="M102 48c-6 14-20 24-36 26-14 2-28-4-36-16" stroke="#a8a29e" stroke-width="1.5" stroke-linecap="round"/>
  <g stroke="#57534e" stroke-width="2" stroke-linejoin="round">
    <path fill="url(#g3d)" d="M38 58 60 44l28 14v22L60 94 38 80V58z"/>
    <path d="M60 44v50M38 58l22 14 28-14M38 80l22-14 28 14"/>
  </g>
  <circle cx="88" cy="28" r="10" fill="#fff" stroke="#d97706" stroke-width="1.75"/>
  <path d="M84 28h8M88 24v8" stroke="#d97706" stroke-width="1.5" stroke-linecap="round"/>
  <path d="M52 36h10M57 31v10" stroke="#78716c" stroke-width="1.25" stroke-linecap="round" opacity="0.7"/>
</svg>
